<?xml version="1.0" encoding="UTF-8"?>
<!DOCTYPE svg PUBLIC "-//W3C//DTD SVG 1.1//EN" "http://www.w3.org/Graphics/SVG/1.1/DTD/svg11.dtd">
<!-- Creator: CorelDRAW -->
<svg xmlns="http://www.w3.org/2000/svg" xml:space="preserve" width="2500px" height="699.999px" version="1.1" style="shape-rendering:geometricPrecision; text-rendering:geometricPrecision; image-rendering:optimizeQuality; fill-rule:evenodd; clip-rule:evenodd"
viewBox="0 0 250000 70000"
 xmlns:xlink="http://www.w3.org/1999/xlink"
 xmlns:xodm="http://www.corel.com/coreldraw/odm/2003">
 <defs>
  <style type="text/css">
   <![CDATA[
    .fil1 {fill:#01CFC2;fill-rule:nonzero}
    .fil0 {fill:url(#id0);fill-rule:nonzero}
   ]]>
  </style>
  <linearGradient id="id0" gradientUnits="userSpaceOnUse" x1="22475" y1="36948" x2="227525" y2="36948">
   <stop offset="0" style="stop-opacity:1; stop-color:#01CFC2"/>
   <stop offset="1" style="stop-opacity:1; stop-color:#C6FEA3"/>
  </linearGradient>
 </defs>
 <g id="Camada_x0020_1">
  <metadata id="CorelCorpID_0Corel-Layer"/>
  <g id="_484561816">
   <path class="fil0" d="M25110 32128c-427,-183 -726,-400 -904,-644 -177,-244 -266,-549 -266,-915 0,-510 138,-932 421,-1259 283,-333 638,-499 1071,-499 128,0 272,22 422,61 149,39 388,127 715,266l12985 6063c544,249 927,504 1154,776 227,272 344,599 344,977 0,393 -117,721 -344,981 -227,267 -610,533 -1154,794l-12985 6057c-327,127 -566,216 -715,260 -150,45 -294,67 -422,67 -433,0 -788,-172 -1071,-510 -283,-344 -421,-777 -421,-1293 0,-360 89,-660 266,-904 178,-244 477,-466 904,-660l10317 -4792 -10317 -4826zm50144 10855l0 -2502c-549,-116 -1049,-205 -1498,-266 -444,-61 -854,-89 -1231,-89 -1248,0 -2202,206 -2862,616 -660,411 -993,999 -993,1770 0,565 222,1009 671,1325 444,316 1059,477 1853,477 748,0 1453,-105 2118,-321 666,-217 1315,-555 1942,-1010zm3933 -5397l0 6029 260 0c583,0 1032,156 1343,466 305,305 460,749 460,1326 0,627 -161,1082 -477,1353 -322,278 -849,416 -1586,416l-1526 0c-543,0 -948,-105 -1215,-310 -260,-205 -482,-577 -654,-1121 -899,594 -1853,1049 -2862,1365 -1004,316 -2025,471 -3057,471 -1752,0 -3123,-432 -4115,-1298 -993,-870 -1487,-2058 -1487,-3561 0,-1625 643,-2884 1930,-3783 1293,-904 3101,-1353 5431,-1353 593,0 1192,28 1791,83 605,56 1215,144 1831,261l0 -311c0,-971 -233,-1714 -705,-2224 -471,-510 -1170,-766 -2091,-766 -726,0 -1642,267 -2751,799 -1115,527 -1903,793 -2369,793 -549,0 -981,-144 -1297,-427 -317,-288 -472,-688 -472,-1198 0,-876 643,-1570 1925,-2085 1281,-516 3028,-771 5242,-771 2307,0 3960,443 4953,1331 998,887 1498,2390 1498,4515zm15547 8387c-343,737 -660,1187 -948,1359 -289,166 -743,249 -1359,249 -1082,0 -1814,-460 -2191,-1381 -44,-94 -78,-172 -100,-227l-4532 -10251 -260 0c-583,0 -1032,-150 -1343,-455 -305,-305 -460,-749 -460,-1337 0,-626 155,-1081 471,-1353 317,-277 843,-416 1592,-416l4127 0c749,0 1276,139 1592,416 316,272 472,727 472,1353 0,588 -156,1032 -461,1337 -310,305 -754,455 -1325,455l-278 0 2940 6923 3056 -6923 -260 0c-583,0 -1032,-150 -1337,-455 -311,-305 -466,-749 -466,-1337 0,-626 155,-1081 471,-1353 317,-277 843,-416 1592,-416l3822 0c760,0 1293,139 1598,416 310,272 466,727 466,1353 0,588 -150,1032 -455,1337 -305,305 -749,455 -1337,455l-272 0 -4815 10251zm13474 -7882l8758 0c-183,-1004 -660,-1786 -1420,-2341 -765,-549 -1758,-827 -2984,-827 -1181,0 -2130,261 -2851,788 -721,527 -1220,1320 -1503,2380zm0 2535c283,1203 821,2107 1625,2701 804,593 1880,893 3234,893 1353,0 2685,-327 3988,-982 1304,-660 2063,-987 2269,-987 432,0 782,144 1054,438 271,294 404,682 404,1154 0,1020 -754,1897 -2257,2635 -1503,737 -3367,1103 -5591,1103 -2613,0 -4737,-737 -6385,-2218 -1647,-1481 -2468,-3373 -2468,-5680 0,-2308 821,-4199 2463,-5669 1636,-1470 3766,-2208 6390,-2208 2341,0 4282,688 5818,2069 1537,1381 2308,3079 2308,5081 0,638 -155,1076 -460,1315 -311,238 -949,355 -1914,355l-10478 0zm22437 -11116l-1803 0c-738,0 -1265,-145 -1581,-427 -321,-289 -482,-749 -482,-1376 0,-638 161,-1098 482,-1381 316,-283 843,-422 1581,-422l4859 0c305,0 538,61 710,189 167,122 250,294 250,510l0 17012 3494 0c749,0 1271,139 1576,411 305,272 455,721 455,1348 0,638 -156,1098 -461,1381 -311,283 -832,421 -1570,421l-11016 0c-726,0 -1248,-138 -1553,-421 -310,-283 -466,-743 -466,-1381 0,-627 150,-1076 455,-1348 305,-272 826,-411 1564,-411l3506 0 0 -14105zm24750 13473l0 -2502c-549,-116 -1048,-205 -1498,-266 -443,-61 -854,-89 -1231,-89 -1248,0 -2202,206 -2862,616 -660,411 -993,999 -993,1770 0,565 222,1009 671,1325 444,316 1059,477 1853,477 748,0 1453,-105 2119,-321 665,-217 1314,-555 1941,-1010zm3933 -5397l0 6029 260 0c583,0 1032,156 1343,466 305,305 460,749 460,1326 0,627 -161,1082 -477,1353 -322,278 -849,416 -1586,416l-1526 0c-543,0 -948,-105 -1214,-310 -261,-205 -483,-577 -655,-1121 -899,594 -1853,1049 -2862,1365 -1004,316 -2025,471 -3056,471 -1753,0 -3123,-432 -4116,-1298 -993,-870 -1487,-2058 -1487,-3561 0,-1625 644,-2884 1930,-3783 1293,-904 3101,-1353 5431,-1353 593,0 1192,28 1791,83 605,56 1215,144 1831,261l0 -311c0,-971 -233,-1714 -704,-2224 -472,-510 -1171,-766 -2092,-766 -726,0 -1641,267 -2751,799 -1115,527 -1903,793 -2368,793 -550,0 -982,-144 -1298,-427 -317,-288 -472,-688 -472,-1198 0,-876 644,-1570 1925,-2085 1281,-516 3029,-771 5242,-771 2307,0 3960,443 4953,1331 999,887 1498,2390 1498,4515zm12674 6029l3833 0c738,0 1259,139 1570,411 305,272 460,721 460,1348 0,638 -155,1098 -460,1381 -311,283 -832,421 -1570,421l-9080 0c-738,0 -1270,-138 -1586,-421 -322,-283 -483,-743 -483,-1381 0,-627 155,-1076 471,-1348 317,-272 849,-411 1598,-411l1231 0 0 -7893 -699 0c-737,0 -1259,-139 -1564,-416 -310,-277 -466,-738 -466,-1376 0,-626 150,-1081 455,-1353 305,-277 827,-416 1575,-416l3462 0c294,0 521,61 682,189 161,122 244,294 244,510l0 2407c1193,-1281 2302,-2185 3317,-2723 1015,-538 2119,-804 3300,-804 1060,0 1903,238 2524,721 627,482 938,1131 938,1941 0,627 -217,1148 -644,1553 -427,405 -976,610 -1647,610 -477,0 -1054,-177 -1725,-538 -671,-355 -1137,-532 -1398,-532 -510,0 -1121,233 -1836,704 -716,472 -1548,1187 -2502,2152l0 5264zm17384 733c0,-899 316,-1631 943,-2203 627,-571 1442,-854 2441,-854 1015,0 1836,283 2463,849 621,560 931,1298 931,2208 0,909 -310,1647 -931,2213 -627,560 -1448,843 -2463,843 -999,0 -1814,-283 -2441,-854 -627,-572 -943,-1304 -943,-2202zm22720 -228c1082,0 1969,-399 2663,-1204 693,-798 1042,-1819 1042,-3067 0,-1226 -349,-2235 -1048,-3034 -699,-793 -1586,-1193 -2657,-1193 -1059,0 -1941,400 -2640,1193 -699,799 -1049,1808 -1049,3034 0,1248 344,2269 1038,3067 693,805 1581,1204 2651,1204zm1609 -14610c-749,0 -1276,-145 -1592,-427 -316,-289 -472,-749 -472,-1376 0,-638 156,-1098 472,-1381 316,-283 843,-422 1592,-422l5053 0c366,0 616,78 754,228 139,149 206,432 206,843l0 16640 277 0c582,0 1020,150 1314,450 294,299 439,737 439,1309 0,638 -156,1098 -466,1381 -305,283 -827,421 -1564,421l-2491 0c-311,0 -549,-61 -721,-188 -167,-122 -250,-294 -250,-510l0 -1138c-554,738 -1242,1293 -2063,1676 -827,377 -1759,565 -2796,565 -2124,0 -3899,-721 -5330,-2168 -1431,-1448 -2147,-3251 -2147,-5420 0,-2224 716,-4088 2152,-5597 1437,-1514 3212,-2268 5325,-2268 843,0 1648,127 2413,388 760,261 1448,632 2052,1109l0 -4115 -2157 0z"/>
   <path class="fil1" d="M48245 31532c0,1259 150,2108 455,2552 305,443 860,726 1675,843 616,88 1065,266 1348,538 283,271 422,676 422,1220 0,549 -139,960 -422,1231 -283,272 -732,450 -1348,538 -815,117 -1370,394 -1675,827 -305,433 -455,1276 -455,2535l0 2230c0,1924 -416,3300 -1253,4127 -832,820 -2191,1231 -4077,1231 -549,0 -977,-122 -1276,-372 -300,-249 -449,-599 -449,-1054 0,-715 649,-1192 1952,-1431 94,-22 161,-33 194,-33 533,-94 893,-322 1087,-682 195,-361 294,-1076 294,-2147l0 -1608c0,-1864 244,-3173 738,-3933 494,-760 1370,-1243 2629,-1459 -1248,-205 -2119,-693 -2618,-1459 -499,-760 -749,-2080 -749,-3955l0 -1608c0,-1038 -88,-1725 -266,-2064 -183,-338 -538,-582 -1065,-732 -127,-33 -322,-72 -571,-111 -1082,-216 -1625,-682 -1625,-1387 0,-454 149,-804 449,-1054 299,-249 727,-371 1276,-371 1886,0 3245,416 4077,1242 837,827 1253,2213 1253,4149l0 2197z"/>
  </g>
 </g>
</svg>
